# xmcd
# 
# Track frame offsets:
#     150
#     20701
#     46775
#     66213
#     89150
#     114163
#     133748
#     151589
#     168921
#     188155
#     202709
# 
# Disc length: 2942
# 
# Revision: 4
# Processed by: cddbd v1.5.2PL0 Copyright (c) Steve Scherf et al.
# Submitted via: fre:ac v1.0.31
# 
DISCID=870b7c0b
DTITLE=The Miles Davis/Tadd Dameron Quintet - Complete Columbia Collection (No.01) - In Paris Festival International de Jazz May, 1949
DYEAR=1949
DGENRE=Jazz
TTITLE0=Rifftide <T. Monk>
TTITLE1=Good Bait< C. Basie, T. Dameron>
TTITLE2=Don't Blame Me <D. Fields, J. McHugh>
TTITLE3=Lady Bird  <T. Dameron>
TTITLE4=Wah-Hoo! <T. Dameron>
TTITLE5=Allen's Alley <D. Best>
TTITLE6=Embraceable You <G. and I. Gershwin>
TTITLE7=Ornithology <C. Parker, B. Harris>
TTITLE8=All The Things You Are <J. Kern, O. Hammerstein II>
TTITLE9=Lover Man <J. Davis, R. Ramirez, J. Sherman>
TTITLE10=The Squirrel <T. Dameron>
EXTD=YEAR: 1949
EXTT0=
EXTT1=
EXTT2=
EXTT3=
EXTT4=
EXTT5=
EXTT6=
EXTT7=
EXTT8=
EXTT9=
EXTT10=
PLAYORDER=
